<svg xmlns="http://www.w3.org/2000/svg" preserveAspectRatio="xMidYMid" width="300" height="300" viewBox="0 0 300 300"><defs><style>.cls-1,.cls-2{fill:#477ed0;fill-rule:evenodd}.cls-2{fill:#ec282c}</style></defs><path d="M200.709 212.986s30.993-16.919 30.993-31.111c0-15.417-21.695-21.778-21.695-21.778s31.506.978 30.993 21.778c-.513 20.8-40.291 31.111-40.291 31.111zm-133.27-31.111c-16.356-7.828 34.092-21.778 34.092-21.778-55.979 26.144 19.16 23.407 65.086 18.667 16.03-1.655 34.092-6.222 34.092-6.222-22.412 24.594-116.915 17.161-133.27 9.333zm86.78 56c12.819-1.208 27.894-6.222 27.894-6.222-11.398 16.208-66.415 15.21-80.582 9.333-14.167-5.877-12.397-18.667-12.397-18.667 9.222 12.375 41.632 17.765 65.085 15.556zm30.993-31.111s-67.173 16.486-89.88 6.222c-20.065-9.07-3.099-18.667-3.099-18.667-14.942 19.865 92.979 12.445 92.979 12.445zm-55.787 56c70.265 0 99.178-12.445 99.178-12.445-9.865 26.159-167.828 28.976-182.86 9.334-10.616-13.872 30.993-18.667 30.993-18.667-29.884 15-17.576 21.778 52.689 21.778zm108.476 0c-57.913 40.63-154.966 15.555-154.966 15.555 100.154 8.514 154.966-15.555 154.966-15.555z" class="cls-1"/><path d="M138.723 156.986s-34.712-17.284-30.993-46.667C112.069 76.03 155.655 62.752 165 47c8.356-14.086 4.716-33.125 4.716-33.125s9.121 15.25 6.198 28C171.748 60.054 155.407 70.533 136 83c-14.53 9.334-38.022 19.768 2.723 73.986z" class="cls-2"/><path d="M157.319 166.319s6.466-15.613-9.298-34.222c-15.765-18.608 5.5-52.324 49.589-62.222 0 0-52.903 23.227-40.61 51.125 4.55 10.325 11.537 19.297 8 30-4.915 14.873-7.681 15.319-7.681 15.319z" class="cls-2"/></svg>