<svg xmlns="http://www.w3.org/2000/svg" width="512" height="512" viewBox="0 0 512 512"><path fill="#F5D602" d="M512 472c0 22.1-17.9 40-40 40H40c-22.1 0-40-17.9-40-40V40C0 17.9 17.9 0 40 0h432c22.1 0 40 17.9 40 40v432z"/><path fill="#0066B2" d="M47 224.4h26.1c5.7 0 9.9 1.4 12.8 4.1 2.8 2.7 4.2 6.5 4.2 11.5 0 5.1-1.5 9.1-4.6 12-3.1 2.9-7.8 4.3-14.1 4.3h-8.6v18.8H47v-50.7zM62.8 246h3.8c3 0 5.1-.5 6.4-1.6 1.2-1.1 1.8-2.4 1.8-4s-.5-2.9-1.6-4.1c-1.1-1.1-3.1-1.7-6-1.7h-4.5V246zM92 256.8c0-5.6 1.9-10.2 5.7-13.9 3.8-3.6 8.9-5.5 15.3-5.5 7.4 0 12.9 2.1 16.7 6.4 3 3.4 4.5 7.7 4.5 12.7 0 5.7-1.9 10.3-5.6 13.9-3.8 3.6-8.9 5.4-15.6 5.4-5.9 0-10.7-1.5-14.3-4.5-4.4-3.6-6.7-8.4-6.7-14.5zm14.1 0c0 3.3.7 5.7 2 7.3 1.3 1.6 3 2.4 5 2.4s3.7-.8 5-2.3c1.3-1.5 2-4 2-7.4 0-3.2-.7-5.6-2-7.1-1.3-1.6-2.9-2.3-4.9-2.3-2.1 0-3.8.8-5.1 2.4-1.3 1.4-2 3.8-2 7zM136.8 264.9l14-1.3c.6 1.7 1.4 2.9 2.4 3.6 1 .7 2.4 1.1 4.2 1.1 1.9 0 3.4-.4 4.4-1.2.8-.6 1.2-1.3 1.2-2.2 0-1-.5-1.8-1.6-2.4-.8-.4-2.8-.9-6.1-1.5-4.9-.9-8.3-1.6-10.2-2.4-1.9-.7-3.5-2-4.8-3.7-1.3-1.7-2-3.7-2-5.9 0-2.4.7-4.5 2.1-6.3 1.4-1.8 3.3-3.1 5.8-3.9s5.8-1.3 9.9-1.3c4.4 0 7.6.3 9.7 1 2.1.7 3.8 1.7 5.2 3.1 1.4 1.4 2.6 3.3 3.5 5.7l-13.4 1.3c-.3-1.2-.9-2-1.7-2.6-1.1-.7-2.4-1.1-4-1.1s-2.8.3-3.5.8-1.1 1.3-1.1 2.1c0 .9.5 1.6 1.4 2 .9.5 2.9.9 6 1.2 4.7.5 8.2 1.3 10.5 2.2 2.3.9 4 2.3 5.2 4s1.8 3.7 1.8 5.8c0 2.1-.6 4.2-1.9 6.2s-3.3 3.6-6.1 4.8c-2.8 1.2-6.5 1.8-11.3 1.8-6.7 0-11.5-1-14.4-2.9s-4.4-4.5-5.2-8zM197.8 224.4v14h7.8v10.3h-7.8v13c0 1.6.1 2.6.5 3.1.5.8 1.3 1.2 2.4 1.2 1 0 2.5-.3 4.4-.9l1 9.7c-3.5.8-6.7 1.1-9.8 1.1-3.5 0-6.1-.4-7.8-1.3s-2.9-2.3-3.7-4.1c-.8-1.8-1.2-4.8-1.2-8.9v-12.9h-5.2v-10.3h5.2v-6.8l14.2-7.2zM251.3 260.2H223c.3 2.3.9 3.9 1.8 5.1 1.4 1.6 3.1 2.4 5.3 2.4 1.4 0 2.7-.3 3.9-1 .8-.4 1.6-1.2 2.5-2.3l13.9 1.3c-2.1 3.7-4.7 6.3-7.7 7.9-3 1.6-7.3 2.4-12.9 2.4-4.9 0-8.7-.7-11.5-2.1-2.8-1.4-5.1-3.6-6.9-6.5-1.8-3-2.8-6.5-2.8-10.5 0-5.7 1.8-10.4 5.5-14 3.7-3.6 8.8-5.3 15.3-5.3 5.3 0 9.4.8 12.5 2.4 3 1.6 5.4 3.9 7 6.9s2.4 7 2.4 11.8v1.5zm-14.3-6.7c-.3-2.7-1-4.7-2.2-5.9-1.2-1.2-2.8-1.8-4.7-1.8-2.2 0-4 .9-5.4 2.7-.9 1.1-1.4 2.8-1.6 5H237zM259.1 233.8V227h6v6.9h-6zm0 41.8v-35.3h6v35.3h-6zM287.3 270.3l.9 5.3c-1.7.4-3.2.5-4.5.5-2.2 0-3.9-.3-5-1s-2-1.6-2.5-2.7-.7-3.5-.7-7.1V245h-4.4v-4.6h4.4v-8.7l5.9-3.6v12.3h6v4.6h-6v20.6c0 1.7.1 2.8.3 3.3.2.5.6.9 1 1.2.5.3 1.2.4 2 .4.6 0 1.5 0 2.6-.2zM316.1 271.3c-2.2 1.9-4.3 3.2-6.4 4-2 .8-4.2 1.2-6.6 1.2-3.9 0-6.9-.9-8.9-2.8-2.1-1.9-3.1-4.3-3.1-7.3 0-1.7.4-3.3 1.2-4.7.8-1.4 1.8-2.6 3.1-3.4 1.3-.9 2.7-1.5 4.3-2 1.2-.3 2.9-.6 5.3-.9 4.8-.6 8.4-1.3 10.7-2.1v-1.6c0-2.4-.6-4.2-1.7-5.1-1.5-1.3-3.8-2-6.8-2-2.8 0-4.9.5-6.2 1.5-1.3 1-2.3 2.7-3 5.2l-5.8-.8c.5-2.5 1.4-4.5 2.6-6.1 1.2-1.5 3-2.7 5.3-3.6 2.3-.8 5-1.2 8-1.2s5.5.4 7.3 1.1c1.9.7 3.3 1.6 4.2 2.7.9 1.1 1.5 2.4 1.9 4.1.2 1 .3 2.9.3 5.5v8c0 5.6.1 9.1.4 10.5.3 1.5.8 2.9 1.5 4.2h-6.2c-.8-1.3-1.2-2.7-1.4-4.4zm-.5-13.3c-2.2.9-5.4 1.6-9.8 2.3-2.5.4-4.2.8-5.2 1.2-1 .4-1.8 1.1-2.4 1.9-.6.9-.8 1.8-.8 2.8 0 1.6.6 2.9 1.8 4 1.2 1.1 3 1.6 5.3 1.6s4.3-.5 6.1-1.5c1.8-1 3.1-2.4 4-4.1.6-1.3 1-3.3 1-6V258zM330.8 275.6V227h6v48.7h-6zM346.1 233.8V227h6v6.9h-6zm0 41.8v-35.3h6v35.3h-6zM384.2 271.3c-2.2 1.9-4.3 3.2-6.4 4-2 .8-4.2 1.2-6.6 1.2-3.9 0-6.9-.9-8.9-2.8-2.1-1.9-3.1-4.3-3.1-7.3 0-1.7.4-3.3 1.2-4.7.8-1.4 1.8-2.6 3.1-3.4 1.3-.9 2.7-1.5 4.3-2 1.2-.3 2.9-.6 5.3-.9 4.8-.6 8.4-1.3 10.7-2.1v-1.6c0-2.4-.6-4.2-1.7-5.1-1.5-1.3-3.8-2-6.8-2-2.8 0-4.9.5-6.2 1.5-1.3 1-2.3 2.7-3 5.2l-5.8-.8c.5-2.5 1.4-4.5 2.6-6.1 1.2-1.5 3-2.7 5.3-3.6 2.3-.8 5-1.2 8-1.2s5.5.4 7.3 1.1c1.9.7 3.3 1.6 4.2 2.7.9 1.1 1.5 2.4 1.9 4.1.2 1 .3 2.9.3 5.5v8c0 5.6.1 9.1.4 10.5.3 1.5.8 2.9 1.5 4.2h-6.2c-.9-1.3-1.3-2.7-1.4-4.4zm-.5-13.3c-2.2.9-5.4 1.6-9.8 2.3-2.5.4-4.2.8-5.2 1.2-1 .4-1.8 1.1-2.4 1.9-.6.9-.8 1.8-.8 2.8 0 1.6.6 2.9 1.8 4 1.2 1.1 3 1.6 5.3 1.6s4.3-.5 6.1-1.5c1.8-1 3.1-2.4 4-4.1.6-1.3 1-3.3 1-6V258zM399 275.6v-35.3h5.4v5c2.6-3.9 6.3-5.8 11.2-5.8 2.1 0 4.1.4 5.9 1.1 1.8.8 3.1 1.8 4 3 .9 1.2 1.5 2.7 1.9 4.4.2 1.1.3 3 .3 5.8v21.7h-6v-21.4c0-2.4-.2-4.3-.7-5.5-.5-1.2-1.3-2.2-2.5-2.9-1.2-.7-2.6-1.1-4.2-1.1-2.5 0-4.7.8-6.6 2.4-1.8 1.6-2.8 4.7-2.8 9.2v19.3H399zM460.9 264.3l6.2.8c-1 3.6-2.8 6.4-5.4 8.4-2.6 2-6 3-10.1 3-5.2 0-9.2-1.6-12.3-4.8-3-3.2-4.5-7.6-4.5-13.4 0-5.9 1.5-10.5 4.6-13.8 3.1-3.3 7-4.9 11.9-4.9 4.7 0 8.6 1.6 11.6 4.8 3 3.2 4.5 7.7 4.5 13.5v1.6H441c.2 3.9 1.3 6.8 3.3 8.9 2 2.1 4.4 3.1 7.4 3.1 2.2 0 4.1-.6 5.6-1.7s2.7-3 3.6-5.5zm-19.6-9.7H461c-.3-3-1-5.2-2.3-6.7-1.9-2.3-4.4-3.5-7.4-3.5-2.7 0-5.1.9-6.9 2.8-1.9 1.9-2.9 4.4-3.1 7.4z"/></svg>