<?xml version="1.0" encoding="utf-8"?>
<!-- Generator: Adobe Illustrator 21.0.0, SVG Export Plug-In . SVG Version: 6.00 Build 0)  -->
<svg version="1.1" id="svg2" xmlns:svg="http://www.w3.org/2000/svg"
	 xmlns="http://www.w3.org/2000/svg" xmlns:xlink="http://www.w3.org/1999/xlink" x="0px" y="0px" viewBox="0 0 800 500"
	 style="enable-background:new 0 0 800 500;" xml:space="preserve">
<style type="text/css">
	.st0{fill:#FFFFFF;}
	.st1{fill:#ED1C23;}
	.st2{fill:#0C4DA2;}
</style>
<g>
	<polygon class="st0" points="160.7,250 400,105.2 639.2,250 400,394.8 	"/>
	<g>
		<path class="st1" d="M160.7,250L400,105.2L639.3,250L400,394.8L160.7,250z M400,8.7L1.1,250L400,491.3L798.9,250L400,8.7z"/>
		<g>
			<rect x="210.5" y="174.6" class="st2" width="378.9" height="150.8"/>
			<path class="st0" d="M514.2,259.3c0-9.9,3.4-19.9,14.8-19.9c11.5,0,15,9.9,15,19.9c0,9.8-3.4,19.8-15,19.8
				C517.6,279.1,514.2,269.1,514.2,259.3 M497.3,259.3c0,19.6,12.5,32.6,31.7,32.6c19.3,0,31.8-12.9,31.8-32.6s-12.5-32.7-31.8-32.7
				C509.8,226.7,497.3,239.6,497.3,259.3 M455.7,290.2h16.9v-27.9c0-10.9,4.3-19.9,16.6-19.9c2,0,4.5,0.2,6,0.6v-15.8
				c-1.1-0.4-2.5-0.6-3.7-0.6c-8.2,0-16.5,5.4-19.6,13.2l-0.2-11.5h-16L455.7,290.2L455.7,290.2z M432.7,209.8h-16.9v18.5h-10.2
				v11.4h10.2v36.5c0,12.3,9,14.7,19.4,14.7c3.3,0,7-0.1,9.9-0.6V277c-1.8,0.4-3.4,0.5-5.2,0.5c-5.7,0-7.1-1.4-7.1-7.2v-30.6h12.3
				v-11.4h-12.3L432.7,209.8L432.7,209.8z M357.1,252.6c0.2-4.8,3.3-13.2,14-13.2c8.2,0,11.9,4.5,13.4,13.2H357.1z M401.3,263.4
				c1.2-19-8.9-36.7-29.8-36.7c-18.6,0-31.3,14.1-31.3,32.7c0,19.1,12,32.6,31.3,32.6c13.9,0,24-6.2,28.7-20.8h-14.8
				c-1.1,3.8-6.5,8-13.3,8c-9.4,0-14.6-4.9-15.1-15.7h44.3V263.4z M240.4,290.2h17.5v-60l21,60h14.4l20.8-60.5l0.2,60.5h17.4v-85.4
				h-26.2l-18.8,58.8l-20.1-58.8h-26.2L240.4,290.2L240.4,290.2z"/>
		</g>
	</g>
</g>
</svg>
